<svg xmlns="http://www.w3.org/2000/svg" xmlns:xlink="http://www.w3.org/1999/xlink" viewBox="0 0 52 48">
    <defs>
        <path id="a" d="M6.214 3.968v9.562a3.107 3.107 0 0 1-6.214 0V1.986C.58.922 1.242 0 2.437 0 4.38 0 5.06 2.442 6.214 3.968Zm11.738.498v15.122a3.452 3.452 0 1 1-6.904 0V2.473C11.698 1.219 12.368 0 13.742 0c2.174 0 2.766 3.056 4.21 4.466ZM29 4.188v10.978a3.107 3.107 0 1 1-6.214 0V1.673C23.326.747 23.97 0 25.046 0 27.087 0 27.734 2.692 29 4.188Z" />
        <path id="b" d="M6.214 6.898c-.55-.674-1.203-1.175-2.147-1.175-2.24 0-2.652 2.824-4.067 4.097V-2.36a3.107 3.107 0 1 1 6.214 0v9.258Zm11.738.218c-.587-.782-1.275-1.393-2.317-1.393-2.493 0-2.722 3.495-4.587 4.461V4.798a3.452 3.452 0 0 1 6.904 0v2.318ZM29 6.512c-.478-.471-1.045-.79-1.798-.79-2.414 0-2.704 3.28-4.416 4.364V-.847a3.107 3.107 0 1 1 6.214 0v7.359Z" />
    </defs>
    <g fill="none" fill-rule="evenodd">
        <g style="transform:translateY(-3%)">
            <path fill="#FB70A9" d="M45.76 35.247C44.946 36.48 44.326 38 42.667 38c-2.791 0-2.942-4.304-5.735-4.304S34.29 38 31.498 38c-2.792 0-2.943-4.304-5.736-4.304C22.97 33.696 23.12 38 20.33 38c-2.792 0-2.943-4.304-5.735-4.304C11.8 33.696 11.95 38 9.16 38c-.877 0-1.494-.425-2.013-1.008C5.149 33.516 4 29.442 4 25.087 4 12.337 13.85 2 26 2s22 10.336 22 23.087c0 3.646-.805 7.094-2.24 10.16Z" />
            <g transform="translate(11 29)">
                <use xlink:href="#a" fill="#4E56A6" />
                <use xlink:href="#b" fill="#000" fill-opacity=".299" />
            </g>
            <path fill="#FB70A9" d="M45.76 35.247C44.946 36.48 44.326 38 42.667 38c-2.791 0-2.942-4.304-5.735-4.304S34.29 38 31.498 38c-2.792 0-2.943-4.304-5.736-4.304C22.97 33.696 23.12 38 20.33 38c-2.792 0-2.943-4.304-5.735-4.304C11.8 33.696 11.95 38 9.16 38c-.877 0-1.494-.425-2.013-1.008C5.149 33.516 4 29.442 4 25.087 4 12.337 13.85 2 26 2s22 10.336 22 23.087c0 3.646-.805 7.094-2.24 10.16Z" />
            <path fill="#E24CA6" d="M41 37.54c5.765-8.576 5.914-18.09.447-28.54A23.028 23.028 0 0 1 48 25.136a23.07 23.07 0 0 1-2.321 10.121C44.833 36.486 44.19 38 42.472 38A2.506 2.506 0 0 1 41 37.54Z" />
            <path fill="#FFF" d="M24.82 30.846c7.651 0 10.872-4.438 10.872-10.741S30.825 8 24.821 8c-6.005 0-10.872 5.802-10.872 12.105 0 6.303 3.221 10.741 10.872 10.741Z" />
            <g transform="translate(17.82 11.462)">
                <ellipse cx="4.077" cy="4.5" fill="#030776" rx="4.077" ry="4.5" />
                <ellipse cx="3.397" cy="3.462" fill="#FFF" rx="2.038" ry="2.077" />
            </g>
        </g>
    </g>
</svg>